<?xml version="1.0" encoding="UTF-8"?>
<svg xmlns="http://www.w3.org/2000/svg" version="1.1" viewBox="0 0 256 256">
    <defs>
        <style>
            .cls-1, .cls-2 {
            fill: #f2a71b;
            }

            .cls-2 {
            stroke: #000;
            stroke-miterlimit: 10;
            stroke-width: .5px;
            }
        </style>
    </defs>
    <!-- Generator: Adobe Illustrator 28.6.0, SVG Export Plug-In . SVG Version: 1.1.0 Build 92)  -->
    <g>
        <g id="Layer_1">
            <g id="Layer_1-2">
                <path class="cls-1"
                      d="M166.7,30.6c-4.1,14.1-8.2,28.3-12.3,42.4-3.5,4.5-51.7,2-60.6,2.7-4.6,1.5,6.5,9.4,5.9,11.3-1.5,4.6-43.9,20.3-69.7,65.5-9.9,17.3-20.3,48.7-15,23.6,1.1-5.3,10.3-32.5,12.9-38.6C52.2,79.8,110.9,50.7,166.8,30.7h0Z"/>
                <path class="cls-2"
                      d="M177.5,34.9c2.7-1.2,14.7,47.8,19.3,49.4,15.2.2,30.4.4,45.6.5-12.5,9.3-25.1,18.6-37.6,27.9-2,6.3,17.1,53.9,14.5,55.3-5.8-3.5-36.2-30.5-38.6-31.1-.8-.2-4.7-.2-5.4,0-2.4.7-32.3,27.9-39.2,30.6,5.3-17.5,10.7-35.1,16.1-52.6-.4-3.9-35.8-24.6-40.8-30,15.9-.2,31.8-.4,47.7-.5,4.2-1.4,15-42.5,18.2-49.4h.2Z"/>
                <path class="cls-1"
                      d="M105.6,95l29.5,18.8c-39.6,18.1-66.8,25.4-95.5,60.1-10.5,12.7-29.6,46.3-11.8,6.4,20.2-45.2,37.6-58.1,77.8-85.3h0Z"/>
                <path class="cls-1"
                      d="M137.8,123.9c-1.5,6.7-7.9,32.5-11.8,35.4-27,10.7-52.9,23.5-76.2,40.8-7.1,5.3-30.6,27.5-31.7,25.2,36.2-62.2,53.4-75,119.6-101.4h.1Z"/>
            </g>
        </g>
    </g>
</svg>
